<svg xmlns="http://www.w3.org/2000/svg" width="15" height="20"><path fill-rule="evenodd" fill="#499C54" d="M.117 10.698a7.879 7.879 0 01.245-3.013c.88-3.127 3.639-5.426 6.912-5.467V.174c0-.113.137-.174.226-.105l4.036 3.09c.066.053.066.158 0 .207l-4.032 3.09c-.093.069-.226.008-.226-.106V4.311c-2.152.036-3.989 1.419-4.779 3.374a5.624 5.624 0 00.743 5.543 1.074 1.074 0 01-.191 1.5.985.985 0 01-1.393-.202 7.663 7.663 0 01-1.541-3.828zM11.77 6.772a5.556 5.556 0 011.152 3.135 5.674 5.674 0 01-.409 2.408c-.79 1.955-2.627 3.342-4.779 3.374V13.65c0-.114-.137-.174-.226-.105l-4.036 3.089c-.066.053-.066.159 0 .207l4.032 3.09c.093.069.226.008.226-.105v-2.044c3.273-.037 6.036-2.336 6.912-5.467.265-.94.358-1.958.245-3.012a7.624 7.624 0 00-1.537-3.828c-.343-.446-.954-.54-1.394-.203a1.078 1.078 0 00-.186 1.5z"/></svg>