<svg xmlns="http://www.w3.org/2000/svg" width="25" height="25"><path fill-rule="evenodd" fill="#445667" d="M21.339 21.339A12.464 12.464 0 0112.5 25a12.46 12.46 0 01-8.839-3.661A12.465 12.465 0 010 12.5a12.46 12.46 0 013.661-8.839A12.462 12.462 0 0112.5 0c3.451 0 6.576 1.399 8.839 3.662A12.46 12.46 0 0125 12.5a12.46 12.46 0 01-3.661 8.839zm-.553-17.126A11.686 11.686 0 0012.5.781a11.683 11.683 0 00-8.286 3.432A11.683 11.683 0 00.781 12.5c0 3.235 1.312 6.166 3.432 8.286a11.684 11.684 0 008.286 3.432c3.236 0 6.165-1.312 8.286-3.432a11.68 11.68 0 003.433-8.286c0-3.236-1.312-6.166-3.432-8.287zm-4.627 8.821a3.508 3.508 0 01-2.487 1.03v-.001l-.001.001h-2.734v.781h3.517a.39.39 0 010 .781h-3.517v2.343h1.173a.39.39 0 010 .782H8.985a.39.39 0 110-.782h1.171v-2.343H8.984a.39.39 0 110-.781h1.172v-.781H8.984a.39.39 0 110-.782h1.172V7.813H8.985a.39.39 0 110-.782h4.687c.957 0 1.826.385 2.461 1.008l.026.023a3.51 3.51 0 01.023 4.946l-.023.026zm-.553-4.419l-.02-.022a2.729 2.729 0 00-1.914-.78h-2.735v5.469h2.734l.001.001v-.001c.755 0 1.439-.305 1.934-.8l.022-.021c.481-.491.78-1.167.78-1.912 0-.755-.307-1.44-.802-1.934z"/></svg>