<svg xmlns="http://www.w3.org/2000/svg" width="26" height="22"><path fill-rule="evenodd" fill="#FF5816" d="M25.231 8.358l-2.595 7.635s-.212 1.134-1.309 1.134H8.234c-1.305 0-1.361-1.424-1.361-1.424L5.232 3.501 1.017 2.436a1.173 1.173 0 01-.855-1.428A1.186 1.186 0 011.603.16L6.6 1.423c.471.119.821.512.883.99l.75 6.047.786 6.207h11.845l.616-2.057-9.929-.004a.977.977 0 01-.982-.972c0-.537.44-.972.982-.972l10.511-.002.655-2.199-10.338.001c-.584 0-1.058-.47-1.058-1.049 0-.578.474-1.048 1.058-1.048l11.685.001c1.936 0 1.167 1.992 1.167 1.992zM9.559 17.821c1.165 0 2.109.935 2.109 2.089 0 1.155-.944 2.09-2.109 2.09a2.1 2.1 0 01-2.11-2.09 2.1 2.1 0 012.11-2.089zm9.206 0a2.1 2.1 0 012.11 2.089 2.1 2.1 0 01-2.11 2.09 2.1 2.1 0 01-2.11-2.09 2.1 2.1 0 012.11-2.089z"/></svg>